<svg width="186" height="186" viewBox="0 0 186 186" fill="none" xmlns="http://www.w3.org/2000/svg">
<rect width="186" height="186" rx="36" fill="#232425"/>
<path fill-rule="evenodd" clip-rule="evenodd" d="M68.552 48.0732L74.7204 63.3387C64.876 69.3677 58.3077 80.224 58.3077 92.6133C58.3077 111.559 73.666 126.917 92.6115 126.917C95.1767 126.917 97.6731 126.634 100.077 126.101L106.245 141.369C101.909 142.579 97.3358 143.225 92.6115 143.225C64.6578 143.225 42 120.565 42 92.6133C42 73.3689 52.7391 56.6331 68.552 48.0732Z" fill="#FE4040"/>
<path fill-rule="evenodd" clip-rule="evenodd" d="M92.6117 110.608C82.6724 110.608 74.6155 102.551 74.6155 92.6115C74.6155 82.6742 82.6724 74.6174 92.6117 74.6174C99.6163 74.6174 105.686 78.6165 108.657 84.4577H125.94C121.575 66.5581 102.985 55.1511 85.1466 59.1237L78.9782 43.8562C110.391 35.0922 143.225 59.5414 143.225 92.6115C143.225 111.856 132.484 128.592 116.671 137.152L110.503 121.886C118.115 117.225 123.769 109.677 125.94 100.767H108.657C105.616 106.735 99.3271 110.608 92.6117 110.608Z" fill="#00C46B"/>
</svg>
